HIERARCHY
ROOT hip
{
  OFFSET 0 0 0
  CHANNELS 6 Xposition Yposition Zposition Zrotation Yrotation Xrotation
  JOINT abdomen
  {
    OFFSET 0 20.6881 -0.73152
    CHANNELS 3 Zrotation Xrotation Yrotation
    JOINT chest
    {
      OFFSET 0 11.7043 -0.48768
      CHANNELS 3 Zrotation Xrotation Yrotation
      JOINT neck
      {
        OFFSET 0 22.1894 -2.19456
        CHANNELS 3 Zrotation Xrotation Yrotation
        JOINT head
        {
          OFFSET -0.24384 7.07133 1.2192
          CHANNELS 3 Zrotation Xrotation Yrotation
          JOINT leftEye
          {
            OFFSET 4.14528 8.04674 8.04672
            CHANNELS 3 Zrotation Xrotation Yrotation
            End Site
            {
              OFFSET 1 0 0
            }
          }
          JOINT rightEye
          {
            OFFSET -3.6576 8.04674 8.04672
            CHANNELS 3 Zrotation Xrotation Yrotation
            End Site
            {
              OFFSET 1 0 0
            }
          }
        }
      }
      JOINT rCollar
      {
        OFFSET -2.68224 19.2634 -4.8768
        CHANNELS 3 Zrotation Xrotation Yrotation
        JOINT rShldr
        {
          OFFSET -8.77824 -1.95073 1.46304
          CHANNELS 3 Zrotation Xrotation Yrotation
          JOINT rForeArm
          {
            OFFSET -28.1742 -1.7115 0.48768
            CHANNELS 3 Zrotation Xrotation Yrotation
            JOINT rHand
            {
              OFFSET -22.5879 0.773209 7.07136
              CHANNELS 3 Zrotation Xrotation Yrotation
              JOINT rThumb1
              {
                OFFSET -1.2192 -0.487915 3.41376
                CHANNELS 3 Zrotation Xrotation Yrotation
                JOINT rThumb2
                {
                  OFFSET -3.37035 -0.52449 3.41376
                  CHANNELS 3 Zrotation Xrotation Yrotation
                  End Site
                  {
                    OFFSET -1.78271 -1.18214 1.43049
                  }
                }
              }
              JOINT rIndex1
              {
                OFFSET -7.75947 0.938293 5.60832
                CHANNELS 3 Zrotation Xrotation Yrotation
                JOINT rIndex2
                {
                  OFFSET -2.54057 -0.884171 1.56538
                  CHANNELS 3 Zrotation Xrotation Yrotation
                  End Site
                  {
                    OFFSET -1.62519 -0.234802 1.16502
                  }
                }
              }
              JOINT rMid1
              {
                OFFSET -8.24714 1.18213 3.41376
                CHANNELS 3 Zrotation Xrotation Yrotation
                JOINT rMid2
                {
                  OFFSET -3.10165 -0.590103 1.0647
                  CHANNELS 3 Zrotation Xrotation Yrotation
                  End Site
                  {
                    OFFSET -2.48547 -0.328903 0.83742
                  }
                }
              }
              JOINT rRing1
              {
                OFFSET -8.82822 0.546677 1.51678
                CHANNELS 3 Zrotation Xrotation Yrotation
                JOINT rRing2
                {
                  OFFSET -2.60934 -0.819778 -0.0198488
                  CHANNELS 3 Zrotation Xrotation Yrotation
                  End Site
                  {
                    OFFSET -2.33842 -0.294052 0.168128
                  }
                }
              }
              JOINT rPinky1
              {
                OFFSET -8.27202 -0.0477905 -0.4584
                CHANNELS 3 Zrotation Xrotation Yrotation
                JOINT rPinky2
                {
                  OFFSET -1.82734 -0.647385 -0.700984
                  CHANNELS 3 Zrotation Xrotation Yrotation
                  End Site
                  {
                    OFFSET -1.69225 -0.51767 -0.607171
                  }
                }
              }
            }
          }
        }
      }
      JOINT lCollar
      {
        OFFSET 2.68224 19.2634 -4.8768
        CHANNELS 3 Zrotation Xrotation Yrotation
        JOINT lShldr
        {
          OFFSET 8.77824 -1.95073 1.46304
          CHANNELS 3 Zrotation Xrotation Yrotation
          JOINT lForeArm
          {
            OFFSET 28.1742 -1.7115 0.48768
            CHANNELS 3 Zrotation Xrotation Yrotation
            JOINT lHand
            {
              OFFSET 22.5879 0.773209 7.07136
              CHANNELS 3 Zrotation Xrotation Yrotation
              JOINT lThumb1
              {
                OFFSET 1.2192 -0.487915 3.41376
                CHANNELS 3 Zrotation Xrotation Yrotation
                JOINT lThumb2
                {
                  OFFSET 3.37035 -0.52449 3.41376
                  CHANNELS 3 Zrotation Xrotation Yrotation
                  End Site
                  {
                    OFFSET 1.78271 -1.18214 1.43049
                  }
                }
              }
              JOINT lIndex1
              {
                OFFSET 7.75947 0.938293 5.60832
                CHANNELS 3 Zrotation Xrotation Yrotation
                JOINT lIndex2
                {
                  OFFSET 2.54057 -0.884171 1.56538
                  CHANNELS 3 Zrotation Xrotation Yrotation
                  End Site
                  {
                    OFFSET 1.62519 -0.234802 1.16502
                  }
                }
              }
              JOINT lMid1
              {
                OFFSET 8.24714 1.18213 3.41376
                CHANNELS 3 Zrotation Xrotation Yrotation
                JOINT lMid2
                {
                  OFFSET 3.10165 -0.590103 1.0647
                  CHANNELS 3 Zrotation Xrotation Yrotation
                  End Site
                  {
                    OFFSET 2.48547 -0.328903 0.83742
                  }
                }
              }
              JOINT lRing1
              {
                OFFSET 8.82822 0.546677 1.51678
                CHANNELS 3 Zrotation Xrotation Yrotation
                JOINT lRing2
                {
                  OFFSET 2.60934 -0.819778 -0.0198488
                  CHANNELS 3 Zrotation Xrotation Yrotation
                  End Site
                  {
                    OFFSET 2.33842 -0.294052 0.168128
                  }
                }
              }
              JOINT lPinky1
              {
                OFFSET 8.27202 -0.0477905 -0.4584
                CHANNELS 3 Zrotation Xrotation Yrotation
                JOINT lPinky2
                {
                  OFFSET 1.82734 -0.647385 -0.700984
                  CHANNELS 3 Zrotation Xrotation Yrotation
                  End Site
                  {
                    OFFSET 1.69225 -0.51767 -0.607171
                  }
                }
              }
            }
          }
        }
      }
    }
  }
  JOINT rButtock
  {
    OFFSET -8.77824 4.35084 1.2192
    CHANNELS 3 Zrotation Xrotation Yrotation
    JOINT rThigh
    {
      OFFSET 0 -1.70687 -2.19456
      CHANNELS 3 Zrotation Xrotation Yrotation
      JOINT rShin
      {
        OFFSET 0 -36.8199 0.73152
        CHANNELS 3 Zrotation Xrotation Yrotation
        JOINT rFoot
        {
          OFFSET 0.73152 -45.1104 -5.12064
          CHANNELS 3 Zrotation Xrotation Yrotation
          End Site
          {
            OFFSET -1.1221 -3.69964 12.103
          }
        }
      }
    }
  }
  JOINT lButtock
  {
    OFFSET 8.77824 4.35084 1.2192
    CHANNELS 3 Zrotation Xrotation Yrotation
    JOINT lThigh
    {
      OFFSET 0 -1.70687 -2.19456
      CHANNELS 3 Zrotation Xrotation Yrotation
      JOINT lShin
      {
        OFFSET 0 -36.8199 0.73152
        CHANNELS 3 Zrotation Xrotation Yrotation
        JOINT lFoot
        {
          OFFSET -0.73152 -45.1104 -5.12064
          CHANNELS 3 Zrotation Xrotation Yrotation
          End Site
          {
            OFFSET 1.1221 -3.69964 12.103
          }
        }
      }
    }
  }
}
MOTION
Frames:	7
Frame Time:	0.03333
-16.4608 67.20089999999999 81.20819999999999 148.692786 -48.813432 -140.418996 -10.859479 28.872177 4.892837 -6.804916 -10.995594 12.252939 -7.70824 18.152371 -48.630147 19.682088 -12.225348 89.703058 -0.001456 -0.0 0.005717 0.00057 0.0 0.000865 4.240022 -44.74275 -8.647155 41.881348 -4.309579 -13.312039 178.628517 -71.130733 41.216527 164.8776 -27.072822 142.087166 -2.925666 2.862117 0.521226 -122.418968 -15.337334 109.385697 -140.764146 1.380277 116.228046 -15.328592 37.002751 4.365312 -10.976074 25.789718 7.640763 -163.902614 -6.994979 143.550302 0.004144 1.771297 0.55708 -153.863257 17.36778 169.391249 -124.851797 -29.03862 -122.62149 -84.546974 -52.292332 -84.708153 5.824935 24.937274 -6.989882 108.795135 -8.958776 -167.318059 117.338841 45.194776 131.60771 -3.191206 -31.665916 2.350737 -27.451768 -26.098874 -2.267349 -8.855553 -76.815754 44.400975 8.571986 12.508908 -5.449559 172.47686 -26.427132 -108.721102 0.057159 0.167911 -0.032584 -11.365076 -24.938282 1.56651 69.297919 72.946437 -87.017132 159.833741 -0.819911 -176.280145 152.200326 37.330157 147.582503 162.695072 55.766891 146.858154 -0.005526 -0.000572 -0.005526 -54.178273 -52.08533 -48.198368 -1.792505 67.258449 69.365521 -3.134195 -63.235641 -80.089552 -179.994648 75.749184 -0.004404 -148.271121 16.14809 114.218641 95.615856 -29.106656 64.853339 -117.560379 4.209774 165.104126
-18.204600000000003 63.846000000000004 82.6199 153.1127 -47.033794 -145.75488 -11.428974 27.374627 4.883938 -7.265766 -10.831065 12.892756 -9.002744 26.201591 -94.279306 29.634666 7.385863 132.695129 -0.002407 0.0 -0.001967 -0.000402 -0.0 0.001642 -142.973729 39.431992 147.390974 40.895844 -60.902217 67.858129 35.275203 -21.023299 119.400741 -29.100299 61.129366 15.018485 -2.889742 2.827961 0.513565 -131.115911 -29.730051 114.62388 -138.494822 4.896885 114.864976 2.198675 12.846652 -6.718502 -36.036973 51.722646 29.833045 3.603466 -0.581023 -0.006252 -145.122894 1.974947 -179.747816 -76.25928 -77.985815 -97.631984 12.986476 44.344588 10.762341 1.775256 0.208382 -0.266412 -4.230022 -44.313338 8.559245 115.048053 -19.928433 137.256109 -81.411192 -29.491694 99.313578 143.679024 56.42673 -118.958233 3.140225 3.070212 -0.565861 29.990011 22.782493 -28.102662 46.208213 39.653221 -36.318061 67.693441 50.200122 -47.95065 -1.281283 -3.803108 0.679887 83.262182 64.351353 -75.219524 145.119367 0.184575 179.188563 152.38669 -25.06514 175.336131 87.576282 -50.206585 85.929159 -4.627141 3.290926 0.074745 -179.987424 75.749636 -0.010347 149.213469 4.47613 82.537335 76.788654 25.428671 -172.126588 45.686884 52.21931 56.668397 -0.002038 6e-06 -0.001019 31.291093 -40.023429 43.383366 23.563294 70.178061 -103.271819 76.967785 50.1036 -7.594524
-19.2654 60.0921 84.3978 156.275438 -45.078953 -150.198193 -9.287609 24.633402 -75.031286 7.210497 -10.738677 93.965641 12.012046 24.682421 108.094982 -23.177536 22.64962 -66.152878 0.000573 0.0 0.000764 -0.002908 0.0 -0.005541 -155.548878 -3.804228 161.899958 153.537653 -32.875969 176.504963 178.419013 17.404445 43.930859 167.502654 -21.423443 143.344823 -4.165648 4.05784 0.783253 -151.577045 -60.491716 116.725135 -27.609044 30.765861 20.255354 14.566128 -10.049901 -2.293728 -36.037838 51.722191 29.83376 -1.161113 12.655863 2.271121 -145.118388 0.185439 -179.186663 12.075687 36.619539 -4.849793 -148.558334 23.531476 -144.736663 -148.472319 13.742764 -142.183882 158.416502 -29.366472 -166.793742 -141.53655 -1.449303 176.389533 168.854151 49.372615 -36.403439 -178.828026 -12.508804 -143.418533 -173.308681 -23.519585 -87.871513 -29.601579 -72.781564 -18.931146 108.427264 34.160985 -91.743101 -94.569332 -67.575477 -45.979249 167.374831 -28.008377 -145.270063 -174.539617 -56.629308 -137.770835 -0.005007 1.770443 -0.556232 155.560371 -1.173678 -171.989361 178.651065 85.147776 139.262575 76.861727 -53.704272 75.512398 0.050222 0.000994 0.037667 -65.936845 -58.265514 180.0 -74.6822 -40.286925 97.923775 151.616482 -18.083725 6.872435 0.050222 0.000994 0.037667 24.418809 -37.611205 -143.353609 -21.97103 -69.768515 49.211745 119.122879 -57.439041 -147.59198
-19.846 56.565799999999996 85.8062 158.369794 -44.569052 -153.700459 -10.079268 24.481261 -74.952836 7.769649 -9.7724 93.676787 -9.87244 23.833306 -76.899849 30.39195 1.902478 118.204181 -0.006853 -0.0 1.6e-05 -0.000347 -0.0 0.003176 -13.743739 42.43157 15.56908 61.864369 -25.10544 37.755758 -5.277247 19.326512 106.271918 -5.855371 23.143572 1.016465 81.971527 -50.091567 32.723079 -57.48555 31.519904 19.419958 5.363518 -9.171698 -2.723206 3.282117 12.806558 2.17982 -39.289609 53.365429 32.879195 -159.058109 7.002518 141.60165 -145.120442 0.267615 -179.212778 -150.661462 -33.840726 -173.360485 19.449514 67.282334 13.091257 1.173496 -0.738906 -0.929613 155.416666 -2.951507 -161.718478 155.172592 68.806046 -108.472394 -173.858182 -46.576158 -30.509991 178.010307 -1.38988 -142.981992 -18.826609 -18.532198 -0.186547 128.325327 -8.217637 -114.801833 172.899786 -51.893501 -120.179389 -173.411316 -54.993198 -106.666492 160.098347 -4.900769 -142.970216 13.63834 36.287925 -11.086218 145.117948 0.226793 179.199237 -11.802505 26.401278 5.990481 25.536628 -38.088419 24.596838 13.342196 -31.158018 15.317522 -0.009099 0.000402 -0.009099 -73.301059 -56.873239 -0.0 88.682908 40.063728 -170.594824 101.769641 -82.529139 -170.097685 0.001766 -0.000355 0.001766 21.506889 -36.888895 -180.0 37.993078 -68.573256 -63.420014 -6.751072 -36.369951 -78.132869
-20.085 53.549899999999994 86.8197 158.544967 -45.507454 -154.782067 -13.161732 26.232184 -26.011795 1.242137 -12.828336 44.104936 -1.326548 34.149902 -158.080732 16.635559 37.342989 -166.376634 -0.002102 0.0 -0.000902 -0.002102 0.0 -0.000902 3.268757 -26.755857 -5.241388 106.719593 78.997165 -59.482518 108.606357 43.588231 92.667805 -177.986994 24.607145 146.352154 -164.697554 -2.372352 89.585127 178.311369 -18.379377 90.939652 -46.2081 39.652957 36.318458 -89.345046 49.527517 66.227049 -67.739539 60.620515 59.99875 -151.526967 24.870608 137.020549 0.004331 0.917815 0.288115 11.177817 -48.275497 -6.099747 -133.878877 -15.639813 -131.334135 -14.409764 -30.518994 -16.879605 3.767927 17.921103 -4.640376 -63.396526 8.194169 -13.132265 -179.944763 34.387092 -37.14832 177.708843 -2.415636 -142.944877 18.018245 16.250974 -5.26571 -14.874675 -14.256455 -1.16704 -103.838247 -76.254236 -53.538826 -86.837346 -65.436079 -30.378576 0.057206 0.168023 -0.031287 163.389905 -5.131056 -143.388817 145.118801 0.18571 179.186108 147.912461 -43.690464 170.369519 24.987473 -37.660279 24.058819 114.812864 -41.914969 114.323781 0.005489 0.000553 0.002744 -79.679537 -58.674148 -166.202641 -100.676798 -16.970842 -57.049036 113.301098 -22.596501 -173.353609 179.996389 75.749405 0.00247 -159.02788 32.168005 101.664502 78.386041 -8.943398 178.415087 177.294659 61.604657 -93.806704
-20.4128 51.0856 87.835 161.146055 -48.336217 -156.71816 -12.84086 20.926051 -180.0 3.205916 7.609218 -162.143422 1.208108 34.409395 -172.712024 7.353641 39.231642 -148.987655 0.000862 -0.0 -0.001401 0.000862 -0.0 -0.001401 -28.701205 57.499003 31.079577 -93.66669 29.945649 122.034293 -76.480847 30.968688 -93.742573 54.086078 -64.663436 41.688903 -166.745122 -4.418624 89.779321 -97.678463 9.783688 40.495712 -152.105722 -18.556954 121.366512 -4.926693 28.153171 -1.865827 68.980549 -80.155187 40.574065 42.829 -69.721631 17.51813 -0.007367 3.559235 1.118236 11.093725 -21.394243 -2.591789 -103.175737 -45.374514 -101.348341 23.572299 61.008187 7.047654 155.417608 -2.951475 -161.718332 46.370442 3.722305 -7.786305 179.053548 19.09415 71.087386 10.116208 6.928603 1.637082 171.707072 -9.38795 -89.949263 156.865126 1.282236 -82.075314 98.707496 38.540939 -83.307056 171.200676 -22.377443 -115.069926 0.058438 0.167769 -0.031825 27.690042 51.090556 -22.908155 145.123394 1.974985 179.749737 149.808961 -37.87123 172.268835 135.822568 -11.89243 133.185249 -16.550232 41.545784 -6.037279 0.000744 -0.002082 0.000744 -85.791196 -56.317642 93.504188 111.353885 -64.394276 -157.620959 139.515744 64.003572 -37.885849 0.000192 -0.00032 -0.000246 29.419225 -41.107125 20.796046 -61.702338 76.42265 -37.652115 16.846559 33.919085 103.259432
-20.660500000000003 49.4811 88.7572 162.882878 -50.170123 -158.305735 -9.709597 23.639422 -69.574338 8.287918 -9.602754 87.798484 -8.291194 18.423907 -40.229107 22.401923 -11.511904 85.293861 0.002418 0.0 0.001254 0.001664 -0.0 -0.001123 -82.877482 68.299842 86.000628 23.704194 -3.092342 55.158323 21.60948 -54.685064 117.748089 -14.013246 46.176674 4.952723 -171.669745 -9.353622 89.950608 -177.169795 -13.757706 93.043272 -160.014243 -33.012337 122.69773 133.178134 -69.60288 75.002753 1.281328 -3.803138 -0.679422 -172.085545 -31.342557 144.106386 -145.118725 0.185344 -179.186853 -153.321644 -19.049332 -176.44712 -150.033791 28.966198 -145.935124 -9.851267 -23.288516 -12.004881 159.22068 -48.028529 -170.415015 75.211647 -48.736986 56.600897 -3.180566 15.252158 141.072257 177.712001 -4.959045 -143.041317 -93.028623 -51.083709 -40.500662 33.515863 3.7826 8.581427 140.684036 1.50544 -116.182748 173.528299 -34.482635 -117.208238 22.005259 41.041135 -17.006709 88.595388 64.020886 -80.467865 145.119016 0.18564 179.186247 157.329477 39.503451 -176.283135 -12.989112 44.344367 -10.759251 -1.771191 0.208769 0.263952 0.0 0.000356 -0.000453 -86.634345 -55.825491 -180.0 -99.190922 -25.436175 16.365607 105.89952 52.318532 -3.252744 -179.99516 75.749286 -0.003312 -154.172049 25.852607 -11.432839 -37.96222 77.789041 -0.3931 174.283357 -7.79871 -64.609745
